<svg width="18" height="18" viewBox="0 0 18 18" fill="none" xmlns="http://www.w3.org/2000/svg">
<path d="M16.6594 17.6502C7.38124 17.6634 0.339694 10.5374 0.34962 1.34047C0.34962 0.739864 0.83651 0.250244 1.43712 0.250244H4.30742C4.84636 0.250244 5.30418 0.646235 5.38332 1.17933C5.57299 2.457 5.94498 3.70085 6.48799 4.87288L6.59974 5.11409C6.75512 5.44948 6.6498 5.84798 6.34899 6.06279C5.4601 6.69759 5.12039 7.97536 5.81288 8.97238C6.68188 10.2235 7.77729 11.3187 9.02815 12.1873C10.0251 12.8796 11.3027 12.5399 11.9375 11.6512C12.1524 11.3502 12.5511 11.2449 12.8867 11.4003L13.1268 11.5115C14.299 12.0545 15.5429 12.4265 16.8207 12.6162C17.3538 12.6953 17.7496 13.1531 17.7496 13.692V16.5627C17.7496 17.1633 17.2615 17.6502 16.6609 17.6502L16.6594 17.6502Z" fill="#B38876"/>
</svg>
