<svg width="16" height="20" viewBox="0 0 16 20" fill="none" xmlns="http://www.w3.org/2000/svg">
<path d="M8.05 19.7377C6.67642 18.5661 5.40323 17.2816 4.24375 15.8978C2.50375 13.8196 0.437501 10.7245 0.437501 7.77523C0.435959 4.69493 2.29087 1.91729 5.13666 0.738448C7.98246 -0.440394 11.2582 0.211928 13.4353 2.39102C14.867 3.8163 15.6689 5.75508 15.6625 7.77523C15.6625 10.7245 13.5963 13.8196 11.8563 15.8978C10.6968 17.2816 9.42359 18.5661 8.05 19.7377ZM8.05 4.51273C6.88442 4.51273 5.80738 5.13456 5.22459 6.14398C4.6418 7.1534 4.6418 8.39706 5.22459 9.40648C5.80738 10.4159 6.88442 11.0377 8.05 11.0377C9.85183 11.0377 11.3125 9.57706 11.3125 7.77523C11.3125 5.9734 9.85183 4.51273 8.05 4.51273Z" fill="#B38876"/>
</svg>
