<svg width="19" height="19" viewBox="0 0 19 19" fill="none" xmlns="http://www.w3.org/2000/svg">
<path fill-rule="evenodd" clip-rule="evenodd" d="M0.0507812 9.50029C0.0507812 14.7194 4.28169 18.9503 9.50078 18.9503C14.7175 18.9446 18.9451 14.717 18.9508 9.50029C18.9508 4.2812 14.7199 0.050293 9.50078 0.050293C4.28169 0.050293 0.0507812 4.2812 0.0507812 9.50029ZM1.94078 9.50029C1.94078 5.32502 5.32551 1.94029 9.50078 1.94029C13.6741 1.94498 17.0561 5.32696 17.0608 9.50029C17.0608 13.6756 13.6761 17.0603 9.50078 17.0603C5.32551 17.0603 1.94078 13.6756 1.94078 9.50029Z" fill="#B38876"/>
<path fill-rule="evenodd" clip-rule="evenodd" d="M9.50078 1.94029C5.32551 1.94029 1.94078 5.32502 1.94078 9.50029C1.94078 13.6756 5.32551 17.0603 9.50078 17.0603C13.6761 17.0603 17.0608 13.6756 17.0608 9.50029C17.0561 5.32696 13.6741 1.94498 9.50078 1.94029ZM8.55578 11.3903H14.2258V9.50029H10.4458V4.77529H8.55578V11.3903Z" fill="#B38876"/>
</svg>
