<svg width="21" height="17" viewBox="0 0 21 17" fill="none" xmlns="http://www.w3.org/2000/svg">
<path fill-rule="evenodd" clip-rule="evenodd" d="M0.75 14.3507C0.75 15.4276 1.62304 16.3007 2.7 16.3007H18.3C19.377 16.3007 20.25 15.4276 20.25 14.3507V2.65068C20.25 1.57373 19.377 0.700684 18.3 0.700684H2.7C1.65532 0.699697 0.795443 1.52217 0.75 2.56586V14.3507ZM2.67563 14.8382L3.16313 5.08818L3.675 3.62568H17.325L17.7881 5.08818L18.2756 14.8382H2.67563Z" fill="#B38876"/>
<path d="M3.675 3.62568L10.5731 7.81818L17.325 3.62568H3.675Z" fill="#B38876"/>
<path d="M3.16313 5.08818L2.67563 14.8382H18.2756L17.7881 5.08818L10.4756 10.1582L3.16313 5.08818Z" fill="#B38876"/>
</svg>
